<svg version="1.1" xmlns="http://www.w3.org/2000/svg" xmlns:xlink="http://www.w3.org/1999/xlink" width="52.30469" height="31.83688" viewBox="0,0,52.30469,31.83688"><g transform="translate(-55.94337,-92.45575)"><g stroke-miterlimit="10"><path d="M57.94337,122.29264v-27.83688h48.30469v27.83688z" fill="#5e5e5e" stroke="#ffffff" stroke-width="4" stroke-linecap="butt"/><path d="M69.78038,108.31088l4.01133,8.36261" fill="none" stroke="#424242" stroke-width="0.5" stroke-linecap="round"/><path d="M78.143,108.44685l-3.60341,7.2748" fill="none" stroke="#424242" stroke-width="0.5" stroke-linecap="round"/><path d="M82.22231,116.33355l4.01133,-7.61474" fill="none" stroke="#424242" stroke-width="0.5" stroke-linecap="round"/><path d="M90.24498,116.74148l4.35128,-8.15864" fill="none" stroke="#424242" stroke-width="0.5" stroke-linecap="round"/><path d="M77.66706,100.96809l-6.6629,6.39094" fill="none" stroke="#424242" stroke-width="0.5" stroke-linecap="round"/><path d="M78.075,100.3562l-0.13598,6.79887" fill="none" stroke="#424242" stroke-width="0.5" stroke-linecap="round"/><path d="M86.16566,107.63099l-7.20681,-7.07082" fill="none" stroke="#424242" stroke-width="0.5" stroke-linecap="round"/><path d="M86.30163,100.3562l8.09066,6.79887" fill="none" stroke="#424242" stroke-width="0.5" stroke-linecap="round"/><path d="M86.23364,101.30804l0.95185,6.52692" fill="none" stroke="#424242" stroke-width="0.5" stroke-linecap="round"/><path d="M76.06933,100.3562c0,-1.1077 0.89796,-2.00567 2.00567,-2.00567c1.1077,0 2.00567,0.89797 2.00567,2.00567c0,1.1077 -0.89796,2.00567 -2.00567,2.00567c-1.1077,0 -2.00567,-0.89796 -2.00567,-2.00567z" fill="#dedede" stroke="#424242" stroke-width="0.5" stroke-linecap="butt"/><path d="M80.09005,116.49885c0,-1.1077 0.89796,-2.00567 2.00566,-2.00567c1.1077,0 2.00567,0.89796 2.00567,2.00567c0,1.1077 -0.89796,2.00567 -2.00567,2.00567c-1.1077,0 -2.00566,-0.89797 -2.00566,-2.00567z" fill="#dedede" stroke="#424242" stroke-width="0.5" stroke-linecap="butt"/><path d="M84.16937,108.3402c0,-1.1077 0.89796,-2.00567 2.00567,-2.00567c1.1077,0 2.00567,0.89796 2.00567,2.00567c0,1.1077 -0.89796,2.00567 -2.00567,2.00567c-1.1077,0 -2.00567,-0.89797 -2.00567,-2.00567z" fill="#dedede" stroke="#424242" stroke-width="0.5" stroke-linecap="butt"/><path d="M76.01072,108.3402c0,-1.1077 0.89796,-2.00567 2.00567,-2.00567c1.1077,0 2.00567,0.89796 2.00567,2.00567c0,1.1077 -0.89796,2.00567 -2.00567,2.00567c-1.1077,0 -2.00567,-0.89797 -2.00567,-2.00567z" fill="#dedede" stroke="#424242" stroke-width="0.5" stroke-linecap="butt"/><path d="M67.85208,108.3402c0,-1.1077 0.89797,-2.00567 2.00567,-2.00567c1.1077,0 2.00566,0.89796 2.00566,2.00567c0,1.1077 -0.89796,2.00567 -2.00566,2.00567c-1.1077,0 -2.00567,-0.89797 -2.00567,-2.00567z" fill="#dedede" stroke="#424242" stroke-width="0.5" stroke-linecap="butt"/><path d="M71.93141,116.49885c0,-1.1077 0.89796,-2.00567 2.00566,-2.00567c1.1077,0 2.00567,0.89796 2.00567,2.00567c0,1.1077 -0.89796,2.00567 -2.00567,2.00567c-1.1077,0 -2.00566,-0.89797 -2.00566,-2.00567z" fill="#dedede" stroke="#424242" stroke-width="0.5" stroke-linecap="butt"/><path d="M88.2487,116.49885c0,-1.1077 0.89796,-2.00567 2.00567,-2.00567c1.1077,0 2.00567,0.89796 2.00567,2.00567c0,1.1077 -0.89796,2.00567 -2.00567,2.00567c-1.1077,0 -2.00567,-0.89797 -2.00567,-2.00567z" fill="#dedede" stroke="#424242" stroke-width="0.5" stroke-linecap="butt"/><path d="M92.32802,108.3402c0,-1.1077 0.89796,-2.00567 2.00567,-2.00567c1.1077,0 2.00567,0.89796 2.00567,2.00567c0,1.1077 -0.89796,2.00567 -2.00567,2.00567c-1.1077,0 -2.00567,-0.89797 -2.00567,-2.00567z" fill="#dedede" stroke="#424242" stroke-width="0.5" stroke-linecap="butt"/><path d="M84.16938,100.24955c0,-1.1077 0.89796,-2.00567 2.00567,-2.00567c1.1077,0 2.00567,0.89796 2.00567,2.00567c0,1.1077 -0.89797,2.00567 -2.00567,2.00567c-1.1077,0 -2.00567,-0.89797 -2.00567,-2.00567z" fill="#dedede" stroke="#424242" stroke-width="0.5" stroke-linecap="butt"/><path d="M69.78038,108.31088l4.01133,8.36261" fill="none" stroke="#424242" stroke-width="0.5" stroke-linecap="round"/><path d="M78.143,108.44685l-3.60341,7.2748" fill="none" stroke="#424242" stroke-width="0.5" stroke-linecap="round"/><path d="M82.22231,116.33355l4.01133,-7.61474" fill="none" stroke="#424242" stroke-width="0.5" stroke-linecap="round"/><path d="M90.24498,116.74148l4.35128,-8.15864" fill="none" stroke="#424242" stroke-width="0.5" stroke-linecap="round"/><path d="M77.66706,100.96809l-6.6629,6.39094" fill="none" stroke="#424242" stroke-width="0.5" stroke-linecap="round"/><path d="M78.075,100.3562l-0.13598,6.79887" fill="none" stroke="#424242" stroke-width="0.5" stroke-linecap="round"/><path d="M86.16566,107.63099l-7.20681,-7.07082" fill="none" stroke="#424242" stroke-width="0.5" stroke-linecap="round"/><path d="M86.30163,100.3562l8.09066,6.79887" fill="none" stroke="#424242" stroke-width="0.5" stroke-linecap="round"/><path d="M86.23364,101.30804l0.95185,6.52692" fill="none" stroke="#424242" stroke-width="0.5" stroke-linecap="round"/><path d="M76.06933,100.3562c0,-1.1077 0.89796,-2.00567 2.00567,-2.00567c1.1077,0 2.00567,0.89797 2.00567,2.00567c0,1.1077 -0.89796,2.00567 -2.00567,2.00567c-1.1077,0 -2.00567,-0.89796 -2.00567,-2.00567z" fill="#dedede" stroke="#424242" stroke-width="0.5" stroke-linecap="butt"/><path d="M80.09005,116.49885c0,-1.1077 0.89796,-2.00567 2.00566,-2.00567c1.1077,0 2.00567,0.89796 2.00567,2.00567c0,1.1077 -0.89796,2.00567 -2.00567,2.00567c-1.1077,0 -2.00566,-0.89797 -2.00566,-2.00567z" fill="#dedede" stroke="#424242" stroke-width="0.5" stroke-linecap="butt"/><path d="M84.16937,108.3402c0,-1.1077 0.89796,-2.00567 2.00567,-2.00567c1.1077,0 2.00567,0.89796 2.00567,2.00567c0,1.1077 -0.89796,2.00567 -2.00567,2.00567c-1.1077,0 -2.00567,-0.89797 -2.00567,-2.00567z" fill="#dedede" stroke="#424242" stroke-width="0.5" stroke-linecap="butt"/><path d="M76.01072,108.3402c0,-1.1077 0.89796,-2.00567 2.00567,-2.00567c1.1077,0 2.00567,0.89796 2.00567,2.00567c0,1.1077 -0.89796,2.00567 -2.00567,2.00567c-1.1077,0 -2.00567,-0.89797 -2.00567,-2.00567z" fill="#dedede" stroke="#424242" stroke-width="0.5" stroke-linecap="butt"/><path d="M67.85208,108.3402c0,-1.1077 0.89797,-2.00567 2.00567,-2.00567c1.1077,0 2.00566,0.89796 2.00566,2.00567c0,1.1077 -0.89796,2.00567 -2.00566,2.00567c-1.1077,0 -2.00567,-0.89797 -2.00567,-2.00567z" fill="#dedede" stroke="#424242" stroke-width="0.5" stroke-linecap="butt"/><path d="M71.93141,116.49885c0,-1.1077 0.89796,-2.00567 2.00566,-2.00567c1.1077,0 2.00567,0.89796 2.00567,2.00567c0,1.1077 -0.89796,2.00567 -2.00567,2.00567c-1.1077,0 -2.00566,-0.89797 -2.00566,-2.00567z" fill="#dedede" stroke="#424242" stroke-width="0.5" stroke-linecap="butt"/><path d="M88.2487,116.49885c0,-1.1077 0.89796,-2.00567 2.00567,-2.00567c1.1077,0 2.00567,0.89796 2.00567,2.00567c0,1.1077 -0.89796,2.00567 -2.00567,2.00567c-1.1077,0 -2.00567,-0.89797 -2.00567,-2.00567z" fill="#dedede" stroke="#424242" stroke-width="0.5" stroke-linecap="butt"/><path d="M92.32802,108.3402c0,-1.1077 0.89796,-2.00567 2.00567,-2.00567c1.1077,0 2.00567,0.89796 2.00567,2.00567c0,1.1077 -0.89796,2.00567 -2.00567,2.00567c-1.1077,0 -2.00567,-0.89797 -2.00567,-2.00567z" fill="#dedede" stroke="#424242" stroke-width="0.5" stroke-linecap="butt"/><path d="M84.16938,100.24955c0,-1.1077 0.89796,-2.00567 2.00567,-2.00567c1.1077,0 2.00567,0.89796 2.00567,2.00567c0,1.1077 -0.89797,2.00567 -2.00567,2.00567c-1.1077,0 -2.00567,-0.89797 -2.00567,-2.00567z" fill="#dedede" stroke="#424242" stroke-width="0.5" stroke-linecap="butt"/></g></g></svg>